<svg width="214" height="40" viewBox="0 0 214 40" fill="none" xmlns="http://www.w3.org/2000/svg">
<rect x="2.95361" y="4.34375" width="33.9701" height="32.5792" rx="6.96951" fill="#6C5FBC"/>
<rect x="1.0075" y="1.0075" width="31.9551" height="30.5642" rx="5.96201" fill="#DBD9EE" stroke="#6C5FBC" stroke-width="2.01499"/>
<path d="M26.2188 10.5151L7.81288 10.4268" stroke="#6C5FBC" stroke-width="2.08432" stroke-linecap="round" stroke-linejoin="round"/>
<path d="M26.2084 14.5161L22.1148 14.4964C20.4217 14.4883 19.0522 12.6889 19.0585 10.4805C19.0647 8.27204 20.4442 6.48589 22.1374 6.49402L26.231 6.51367" stroke="#6C5FBC" stroke-width="2.08432" stroke-linecap="round" stroke-linejoin="round"/>
<path d="M13.9539 23.3167L8.60585 23.252C8.16763 23.2499 7.80046 22.7805 7.79211 22.2089L7.75652 20.7018C7.74825 20.1042 8.11818 19.5994 8.57631 19.6016L13.8646 19.6659L13.9539 23.3167Z" stroke="#6C5FBC" stroke-width="2.08432" stroke-linecap="round" stroke-linejoin="round"/>
<path d="M22.3542 25.4876L14.7948 25.3863C14.3565 25.3842 13.9893 24.9148 13.981 24.3431L13.8846 19.6529L26.1649 19.8158L26.1732 20.4134C26.2349 23.2457 24.5154 25.5239 22.3542 25.4876Z" stroke="#6C5FBC" stroke-width="2.08432" stroke-linecap="round" stroke-linejoin="round"/>
<path d="M56.3396 16.984C56.7236 16.232 57.2676 15.648 57.9716 15.232C58.6916 14.816 59.5636 14.608 60.5876 14.608V16.864H60.0116C57.5636 16.864 56.3396 18.192 56.3396 20.848V28H54.1556V14.848H56.3396V16.984ZM75.1087 20.92C75.1087 21.336 75.0847 21.776 75.0367 22.24H64.5247C64.6047 23.536 65.0447 24.552 65.8447 25.288C66.6607 26.008 67.6447 26.368 68.7967 26.368C69.7407 26.368 70.5247 26.152 71.1487 25.72C71.7887 25.272 72.2367 24.68 72.4927 23.944H74.8447C74.4927 25.208 73.7887 26.24 72.7327 27.04C71.6767 27.824 70.3647 28.216 68.7967 28.216C67.5487 28.216 66.4287 27.936 65.4367 27.376C64.4607 26.816 63.6927 26.024 63.1327 25C62.5727 23.96 62.2927 22.76 62.2927 21.4C62.2927 20.04 62.5647 18.848 63.1087 17.824C63.6527 16.8 64.4127 16.016 65.3887 15.472C66.3807 14.912 67.5167 14.632 68.7967 14.632C70.0447 14.632 71.1487 14.904 72.1087 15.448C73.0687 15.992 73.8047 16.744 74.3167 17.704C74.8447 18.648 75.1087 19.72 75.1087 20.92ZM72.8527 20.464C72.8527 19.632 72.6687 18.92 72.3007 18.328C71.9327 17.72 71.4287 17.264 70.7887 16.96C70.1647 16.64 69.4687 16.48 68.7007 16.48C67.5967 16.48 66.6527 16.832 65.8687 17.536C65.1007 18.24 64.6607 19.216 64.5487 20.464H72.8527ZM82.6476 28.216C81.6396 28.216 80.7356 28.048 79.9356 27.712C79.1356 27.36 78.5036 26.88 78.0396 26.272C77.5756 25.648 77.3196 24.936 77.2716 24.136H79.5276C79.5916 24.792 79.8956 25.328 80.4396 25.744C80.9996 26.16 81.7276 26.368 82.6236 26.368C83.4556 26.368 84.1116 26.184 84.5916 25.816C85.0716 25.448 85.3116 24.984 85.3116 24.424C85.3116 23.848 85.0556 23.424 84.5436 23.152C84.0316 22.864 83.2396 22.584 82.1676 22.312C81.1916 22.056 80.3916 21.8 79.7676 21.544C79.1596 21.272 78.6316 20.88 78.1836 20.368C77.7516 19.84 77.5356 19.152 77.5356 18.304C77.5356 17.632 77.7356 17.016 78.1356 16.456C78.5356 15.896 79.1036 15.456 79.8396 15.136C80.5756 14.8 81.4156 14.632 82.3596 14.632C83.8156 14.632 84.9916 15 85.8876 15.736C86.7836 16.472 87.2636 17.48 87.3276 18.76H85.1436C85.0956 18.072 84.8156 17.52 84.3036 17.104C83.8076 16.688 83.1356 16.48 82.2876 16.48C81.5036 16.48 80.8796 16.648 80.4156 16.984C79.9516 17.32 79.7196 17.76 79.7196 18.304C79.7196 18.736 79.8556 19.096 80.1276 19.384C80.4156 19.656 80.7676 19.88 81.1836 20.056C81.6156 20.216 82.2076 20.4 82.9596 20.608C83.9036 20.864 84.6716 21.12 85.2636 21.376C85.8556 21.616 86.3596 21.984 86.7756 22.48C87.2076 22.976 87.4316 23.624 87.4476 24.424C87.4476 25.144 87.2476 25.792 86.8476 26.368C86.4476 26.944 85.8796 27.4 85.1436 27.736C84.4236 28.056 83.5916 28.216 82.6476 28.216ZM93.1946 16.648V24.4C93.1946 25.04 93.3306 25.496 93.6026 25.768C93.8746 26.024 94.3466 26.152 95.0186 26.152H96.6266V28H94.6586C93.4426 28 92.5306 27.72 91.9226 27.16C91.3146 26.6 91.0106 25.68 91.0106 24.4V16.648H89.3066V14.848H91.0106V11.536H93.1946V14.848H96.6266V16.648H93.1946ZM98.4568 21.376C98.4568 20.032 98.7288 18.856 99.2728 17.848C99.8168 16.824 100.561 16.032 101.505 15.472C102.465 14.912 103.529 14.632 104.697 14.632C105.849 14.632 106.849 14.88 107.697 15.376C108.545 15.872 109.177 16.496 109.593 17.248V14.848H111.801V28H109.593V25.552C109.161 26.32 108.513 26.96 107.649 27.472C106.801 27.968 105.809 28.216 104.673 28.216C103.505 28.216 102.449 27.928 101.505 27.352C100.561 26.776 99.8168 25.968 99.2728 24.928C98.7288 23.888 98.4568 22.704 98.4568 21.376ZM109.593 21.4C109.593 20.408 109.393 19.544 108.993 18.808C108.593 18.072 108.049 17.512 107.361 17.128C106.689 16.728 105.945 16.528 105.129 16.528C104.313 16.528 103.569 16.72 102.897 17.104C102.225 17.488 101.689 18.048 101.289 18.784C100.889 19.52 100.689 20.384 100.689 21.376C100.689 22.384 100.889 23.264 101.289 24.016C101.689 24.752 102.225 25.32 102.897 25.72C103.569 26.104 104.313 26.296 105.129 26.296C105.945 26.296 106.689 26.104 107.361 25.72C108.049 25.32 108.593 24.752 108.993 24.016C109.393 23.264 109.593 22.392 109.593 21.4ZM127.156 14.848V28H124.972V26.056C124.556 26.728 123.972 27.256 123.22 27.64C122.484 28.008 121.668 28.192 120.772 28.192C119.748 28.192 118.828 27.984 118.012 27.568C117.196 27.136 116.548 26.496 116.068 25.648C115.604 24.8 115.372 23.768 115.372 22.552V14.848H117.532V22.264C117.532 23.56 117.86 24.56 118.516 25.264C119.172 25.952 120.068 26.296 121.204 26.296C122.372 26.296 123.292 25.936 123.964 25.216C124.636 24.496 124.972 23.448 124.972 22.072V14.848H127.156ZM133.027 16.984C133.411 16.232 133.955 15.648 134.659 15.232C135.379 14.816 136.251 14.608 137.275 14.608V16.864H136.699C134.251 16.864 133.027 18.192 133.027 20.848V28H130.843V14.848H133.027V16.984ZM138.98 21.376C138.98 20.032 139.252 18.856 139.796 17.848C140.34 16.824 141.084 16.032 142.028 15.472C142.988 14.912 144.052 14.632 145.22 14.632C146.372 14.632 147.372 14.88 148.22 15.376C149.068 15.872 149.7 16.496 150.116 17.248V14.848H152.324V28H150.116V25.552C149.684 26.32 149.036 26.96 148.172 27.472C147.324 27.968 146.332 28.216 145.196 28.216C144.028 28.216 142.972 27.928 142.028 27.352C141.084 26.776 140.34 25.968 139.796 24.928C139.252 23.888 138.98 22.704 138.98 21.376ZM150.116 21.4C150.116 20.408 149.916 19.544 149.516 18.808C149.116 18.072 148.572 17.512 147.884 17.128C147.212 16.728 146.468 16.528 145.652 16.528C144.836 16.528 144.092 16.72 143.42 17.104C142.748 17.488 142.212 18.048 141.812 18.784C141.412 19.52 141.212 20.384 141.212 21.376C141.212 22.384 141.412 23.264 141.812 24.016C142.212 24.752 142.748 25.32 143.42 25.72C144.092 26.104 144.836 26.296 145.652 26.296C146.468 26.296 147.212 26.104 147.884 25.72C148.572 25.32 149.116 24.752 149.516 24.016C149.916 23.264 150.116 22.392 150.116 21.4ZM162.423 14.608C164.023 14.608 165.319 15.096 166.311 16.072C167.303 17.032 167.799 18.424 167.799 20.248V28H165.639V20.56C165.639 19.248 165.311 18.248 164.655 17.56C163.999 16.856 163.103 16.504 161.967 16.504C160.815 16.504 159.895 16.864 159.207 17.584C158.535 18.304 158.199 19.352 158.199 20.728V28H156.015V14.848H158.199V16.72C158.631 16.048 159.215 15.528 159.951 15.16C160.703 14.792 161.527 14.608 162.423 14.608ZM174.031 16.648V24.4C174.031 25.04 174.167 25.496 174.439 25.768C174.711 26.024 175.183 26.152 175.855 26.152H177.463V28H175.495C174.279 28 173.367 27.72 172.759 27.16C172.151 26.6 171.847 25.68 171.847 24.4V16.648H170.143V14.848H171.847V11.536H174.031V14.848H177.463V16.648H174.031Z" fill="#6C5FBC"/>
</svg>
